<svg width="88" height="32" viewBox="0 0 88 32" fill="none" xmlns="http://www.w3.org/2000/svg">
<g id="logo">
<g id="CubeFocus">
<path id="case" d="M29 6V11C29 11.2652 28.8946 11.5196 28.7071 11.7071C28.5196 11.8946 28.2652 12 28 12C27.7348 12 27.4804 11.8946 27.2929 11.7071C27.1054 11.5196 27 11.2652 27 11V7H23C22.7348 7 22.4804 6.89464 22.2929 6.70711C22.1054 6.51957 22 6.26522 22 6C22 5.73478 22.1054 5.48043 22.2929 5.29289C22.4804 5.10536 22.7348 5 23 5H28C28.2652 5 28.5196 5.10536 28.7071 5.29289C28.8946 5.48043 29 5.73478 29 6ZM10 26C10 26.2652 9.89464 26.5196 9.70711 26.7071C9.51957 26.8946 9.26522 27 9 27H4C3.73478 27 3.48043 26.8946 3.29289 26.7071C3.10536 26.5196 3 26.2652 3 26V21C3 20.7348 3.10536 20.4804 3.29289 20.2929C3.48043 20.1054 3.73478 20 4 20C4.26522 20 4.51957 20.1054 4.70711 20.2929C4.89464 20.4804 5 20.7348 5 21V25H9C9.26522 25 9.51957 25.1054 9.70711 25.2929C9.89464 25.4804 10 25.7348 10 26ZM29 21V26C29 26.2652 28.8946 26.5196 28.7071 26.7071C28.5196 26.8946 28.2652 27 28 27H23C22.7348 27 22.4804 26.8946 22.2929 26.7071C22.1054 26.5196 22 26.2652 22 26C22 25.7348 22.1054 25.4804 22.2929 25.2929C22.4804 25.1054 22.7348 25 23 25H27V21C27 20.7348 27.1054 20.4804 27.2929 20.2929C27.4804 20.1054 27.7348 20 28 20C28.2652 20 28.5196 20.1054 28.7071 20.2929C28.8946 20.4804 29 20.7348 29 21ZM3 11V6C3 5.73478 3.10536 5.48043 3.29289 5.29289C3.48043 5.10536 3.73478 5 4 5H9C9.26522 5 9.51957 5.10536 9.70711 5.29289C9.89464 5.48043 10 5.73478 10 6C10 6.26522 9.89464 6.51957 9.70711 6.70711C9.51957 6.89464 9.26522 7 9 7H5V11C5 11.2652 4.89464 11.5196 4.70711 11.7071C4.51957 11.8946 4.26522 12 4 12C3.73478 12 3.48043 11.8946 3.29289 11.7071C3.10536 11.5196 3 11.2652 3 11Z" fill="#4286EE"/>
<path id="qr" d="M13.8182 8H9.45455C9.06878 8 8.69881 8.15325 8.42603 8.42603C8.15325 8.69881 8 9.06878 8 9.45455V13.8182C8 14.204 8.15325 14.5739 8.42603 14.8467C8.69881 15.1195 9.06878 15.2727 9.45455 15.2727H13.8182C14.204 15.2727 14.5739 15.1195 14.8467 14.8467C15.1195 14.5739 15.2727 14.204 15.2727 13.8182V9.45455C15.2727 9.06878 15.1195 8.69881 14.8467 8.42603C14.5739 8.15325 14.204 8 13.8182 8ZM13.8182 13.8182H9.45455V9.45455H13.8182V13.8182ZM13.8182 16.7273H9.45455C9.06878 16.7273 8.69881 16.8805 8.42603 17.1533C8.15325 17.4261 8 17.796 8 18.1818V22.5455C8 22.9312 8.15325 23.3012 8.42603 23.574C8.69881 23.8468 9.06878 24 9.45455 24H13.8182C14.204 24 14.5739 23.8468 14.8467 23.574C15.1195 23.3012 15.2727 22.9312 15.2727 22.5455V18.1818C15.2727 17.796 15.1195 17.4261 14.8467 17.1533C14.5739 16.8805 14.204 16.7273 13.8182 16.7273ZM13.8182 22.5455H9.45455V18.1818H13.8182V22.5455ZM22.5455 8H18.1818C17.796 8 17.4261 8.15325 17.1533 8.42603C16.8805 8.69881 16.7273 9.06878 16.7273 9.45455V13.8182C16.7273 14.204 16.8805 14.5739 17.1533 14.8467C17.4261 15.1195 17.796 15.2727 18.1818 15.2727H22.5455C22.9312 15.2727 23.3012 15.1195 23.574 14.8467C23.8468 14.5739 24 14.204 24 13.8182V9.45455C24 9.06878 23.8468 8.69881 23.574 8.42603C23.3012 8.15325 22.9312 8 22.5455 8ZM22.5455 13.8182H18.1818V9.45455H22.5455V13.8182ZM16.7273 20.3636V17.4545C16.7273 17.2617 16.8039 17.0767 16.9403 16.9403C17.0767 16.8039 17.2617 16.7273 17.4545 16.7273C17.6474 16.7273 17.8324 16.8039 17.9688 16.9403C18.1052 17.0767 18.1818 17.2617 18.1818 17.4545V20.3636C18.1818 20.5565 18.1052 20.7415 17.9688 20.8779C17.8324 21.0143 17.6474 21.0909 17.4545 21.0909C17.2617 21.0909 17.0767 21.0143 16.9403 20.8779C16.8039 20.7415 16.7273 20.5565 16.7273 20.3636ZM24 18.9091C24 19.102 23.9234 19.287 23.787 19.4234C23.6506 19.5597 23.4656 19.6364 23.2727 19.6364H21.0909V23.2727C21.0909 23.4656 21.0143 23.6506 20.8779 23.787C20.7415 23.9234 20.5565 24 20.3636 24H17.4545C17.2617 24 17.0767 23.9234 16.9403 23.787C16.8039 23.6506 16.7273 23.4656 16.7273 23.2727C16.7273 23.0798 16.8039 22.8949 16.9403 22.7585C17.0767 22.6221 17.2617 22.5455 17.4545 22.5455H19.6364V17.4545C19.6364 17.2617 19.713 17.0767 19.8494 16.9403C19.9858 16.8039 20.1708 16.7273 20.3636 16.7273C20.5565 16.7273 20.7415 16.8039 20.8779 16.9403C21.0143 17.0767 21.0909 17.2617 21.0909 17.4545V18.1818H23.2727C23.4656 18.1818 23.6506 18.2584 23.787 18.3948C23.9234 18.5312 24 18.7162 24 18.9091ZM24 21.8182V23.2727C24 23.4656 23.9234 23.6506 23.787 23.787C23.6506 23.9234 23.4656 24 23.2727 24C23.0798 24 22.8949 23.9234 22.7585 23.787C22.6221 23.6506 22.5455 23.4656 22.5455 23.2727V21.8182C22.5455 21.6253 22.6221 21.4403 22.7585 21.3039C22.8949 21.1675 23.0798 21.0909 23.2727 21.0909C23.4656 21.0909 23.6506 21.1675 23.787 21.3039C23.9234 21.4403 24 21.6253 24 21.8182Z" fill="#E48416"/>
</g>
<path id="text" d="M32.23 13.039L32.46 10.9H36.094C36.738 10.9 37.2593 11.0993 37.658 11.498C38.0567 11.8813 38.256 12.395 38.256 13.039V20.238C38.256 20.882 38.0107 21.4033 37.52 21.802C37.0447 22.1853 36.485 22.377 35.841 22.377H34.76V27H32.575V13.039H32.23ZM35.956 13.039H34.76V20.238H35.956C36.0327 20.238 36.071 20.1997 36.071 20.123V13.154C36.071 13.0773 36.0327 13.039 35.956 13.039ZM41.2458 12.441L41.4758 14.58H39.2908V12.441H41.2458ZM41.4758 15.5V27H39.2908V17.639H38.9458L39.1758 15.5H41.4758ZM46.525 27L45.375 23.711L44.225 27H42.04L44.018 21.25L42.04 15.5H44.225L45.375 18.789L46.525 15.5H48.71L46.732 21.25L48.71 27H46.525ZM53.3038 24.953V17.547C53.3038 16.903 53.5031 16.3893 53.9018 16.006C54.3004 15.6073 54.8218 15.408 55.4658 15.408H56.8918C57.5358 15.408 58.0571 15.6073 58.4558 16.006C58.8544 16.3893 59.0538 16.903 59.0538 17.547V20.376H56.8688V17.662C56.8688 17.5853 56.8304 17.547 56.7538 17.547H55.6038C55.5271 17.547 55.4888 17.5853 55.4888 17.662V20.376H59.0538V22.515H55.4888V24.838C55.4888 24.9147 55.5271 24.953 55.6038 24.953H56.7538C56.8304 24.953 56.8688 24.9223 56.8688 24.861V23.596H59.0538V24.953C59.0538 25.597 58.8544 26.1183 58.4558 26.517C58.0571 26.9003 57.5358 27.092 56.8918 27.092H55.4658C54.8218 27.092 54.3004 26.9003 53.9018 26.517C53.5031 26.1183 53.3038 25.597 53.3038 24.953ZM66.0006 27H63.8156V17.754C63.8156 17.6773 63.7773 17.639 63.7006 17.639H62.4816V27H60.2966V17.639H59.7446L59.9746 15.5H62.4816V16.397L63.0566 15.5H63.6776C64.1836 15.5 64.6206 15.6073 64.9886 15.822C65.3566 16.0367 65.625 16.328 65.7936 16.696L66.5756 15.5H67.1966C67.902 15.5 68.4616 15.6993 68.8756 16.098C69.305 16.4967 69.5196 17.0103 69.5196 17.639V24.861H70.0716L69.8416 27H67.3346V17.754C67.3346 17.6773 67.2963 17.639 67.2196 17.639H66.0006V27ZM80.1327 18.904V21.043H80.1097V24.838C80.1097 25.482 79.9104 26.0033 79.5117 26.402C79.113 26.7853 78.5917 26.977 77.9477 26.977H74.8887V24.838H77.8097C77.8864 24.838 77.9247 24.7997 77.9247 24.723V21.043H75.5557V18.904H77.9477V15.454C77.9477 15.3773 77.9094 15.339 77.8327 15.339H74.9117V13.2H77.9707C78.6147 13.2 79.136 13.3993 79.5347 13.798C79.9334 14.1813 80.1327 14.695 80.1327 15.339V18.904ZM87.023 24.861C87.023 25.505 86.8237 26.0263 86.425 26.425C86.0263 26.8083 85.505 27 84.861 27H81.043V13.039H80.698L80.928 10.9H84.861C85.505 10.9 86.0263 11.0993 86.425 11.498C86.8237 11.8813 87.023 12.395 87.023 13.039V24.861ZM84.723 13.039H83.228V24.861H84.723C84.7997 24.861 84.838 24.8227 84.838 24.746V13.154C84.838 13.0773 84.7997 13.039 84.723 13.039Z" fill="#030D1C"/>
</g>
</svg>
