<svg width="2981" height="1681" viewBox="0 0 2981 1681" fill="none" xmlns="http://www.w3.org/2000/svg">
<g clip-path="url(#clip0_118_64)">
<path d="M2030.24 513.912L1591.31 767.329V884.03L2030.24 1137.45V513.912Z" fill="#315EFA"/>
<path d="M1490.24 0L950.245 311.767L1490.24 623.533L2030.24 311.767L1490.24 0Z" fill="#315EFA"/>
<path d="M950.25 513.912L950.241 1137.45L1395.26 880.518V770.84L950.25 513.912Z" fill="#315EFA"/>
</g>
<path d="M28.0521 1572.45V1285.92H81.7517L214.398 1378.9H216.402L349.048 1285.92H402.747V1572.45H338.628V1366.07L247.66 1426.98V1572.45H183.541V1426.98L92.171 1366.07V1572.45H28.0521ZM518.641 1572.45C495.13 1572.45 477.898 1566.58 466.945 1554.82C456.258 1543.07 450.915 1527.84 450.915 1509.14V1366.07H509.023V1502.32C509.023 1518.35 517.038 1526.37 533.067 1526.37H616.422C632.452 1526.37 640.467 1518.35 640.467 1502.32V1366.07H698.575V1509.14C698.575 1527.84 693.098 1543.07 682.144 1554.82C671.458 1566.58 654.359 1572.45 630.849 1572.45H518.641ZM740.562 1572.45V1366.07H920.496C944.006 1366.07 961.104 1371.95 971.791 1383.7C982.745 1395.19 988.221 1410.42 988.221 1429.39V1572.45H930.114V1436.2C930.114 1420.17 922.099 1412.16 906.069 1412.16H798.67V1572.45H740.562ZM1284.23 1572.45H1226.13V1285.92H1284.23V1572.45ZM1274.21 1572.45H1135.96C1100.16 1572.45 1072.24 1563.64 1052.2 1546.01C1032.17 1528.37 1022.15 1502.86 1022.15 1469.46C1022.15 1435.8 1032.17 1410.15 1052.2 1392.52C1072.24 1374.89 1100.16 1366.07 1135.96 1366.07H1270.21V1412.16H1135.96C1118.59 1412.16 1105.23 1416.97 1095.88 1426.58C1086.8 1435.93 1082.26 1450.23 1082.26 1469.46C1082.26 1488.43 1086.8 1502.72 1095.88 1512.34C1105.23 1521.69 1118.59 1526.37 1135.96 1526.37H1274.21V1572.45ZM1434.17 1574.46C1398.37 1574.46 1370.45 1565.64 1350.41 1548.01C1330.38 1530.11 1320.36 1503.93 1320.36 1469.46C1320.36 1434.73 1330.38 1408.55 1350.41 1390.92C1370.45 1373.02 1398.37 1364.07 1434.17 1364.07H1508.31C1544.11 1364.07 1572.02 1373.02 1592.06 1390.92C1612.1 1408.55 1622.12 1434.73 1622.12 1469.46C1622.12 1503.93 1612.1 1530.11 1592.06 1548.01C1572.02 1565.64 1544.11 1574.46 1508.31 1574.46H1434.17ZM1434.17 1528.37H1508.31C1525.67 1528.37 1538.9 1523.56 1547.98 1513.95C1557.33 1504.33 1562 1489.5 1562 1469.46C1562 1449.16 1557.33 1434.2 1547.98 1424.58C1538.9 1414.96 1525.67 1410.15 1508.31 1410.15H1434.17C1416.8 1410.15 1403.44 1414.96 1394.09 1424.58C1385.01 1434.2 1380.47 1449.16 1380.47 1469.46C1380.47 1489.5 1385.01 1504.33 1394.09 1513.95C1403.44 1523.56 1416.8 1528.37 1434.17 1528.37Z" fill="white"/>
<path d="M1768.34 1564.82C1734.99 1564.82 1708.98 1556.61 1690.31 1540.18C1671.64 1523.5 1662.31 1499.11 1662.31 1467C1662.31 1434.64 1671.64 1410.25 1690.31 1393.82C1708.98 1377.15 1734.99 1368.81 1768.34 1368.81H1861.68C1883.59 1368.81 1900.26 1374.04 1911.71 1384.49C1923.41 1394.69 1929.26 1409.38 1929.26 1428.55C1929.26 1467.62 1906.73 1487.16 1861.68 1487.16H1720.55C1725.78 1510.31 1741.71 1521.89 1768.34 1521.89H1919.55V1564.82H1768.34ZM1768.34 1411.74C1742.71 1411.74 1726.9 1422.57 1720.93 1444.23H1859.07C1864.05 1444.23 1867.9 1442.73 1870.64 1439.75C1873.63 1436.76 1875.12 1432.65 1875.12 1427.43C1875.12 1416.97 1869.77 1411.74 1859.07 1411.74H1768.34ZM1962.92 1562.95V1370.68H2211.95C2233.85 1370.68 2249.91 1376.15 2260.11 1387.1C2270.32 1397.81 2275.42 1411.99 2275.42 1429.67V1562.95H2221.28V1436.39C2221.28 1421.2 2213.57 1413.61 2198.14 1413.61H2146.24V1562.95H2092.1V1413.61H2017.06V1562.95H1962.92Z" fill="white"/>
<path d="M2317.68 1562.95V1514.42H2523.03C2532.49 1514.42 2539.58 1511.8 2544.31 1506.58C2549.04 1501.1 2551.4 1493.63 2551.4 1484.18C2551.4 1474.47 2549.04 1466.88 2544.31 1461.4C2539.58 1455.93 2532.49 1453.19 2523.03 1453.19H2352.78V1405.02H2522.66C2541.82 1405.02 2551.4 1394.94 2551.4 1374.78C2551.4 1354.87 2541.82 1344.91 2522.66 1344.91H2317.68V1296.38H2533.86C2559.74 1296.38 2579.78 1302.85 2593.97 1315.79C2608.4 1328.49 2615.62 1346.28 2615.62 1369.18C2615.62 1381.63 2613.26 1393.45 2608.53 1404.65C2603.8 1415.6 2595.96 1423.69 2585.01 1428.92C2595.96 1434.39 2603.8 1442.48 2608.53 1453.19C2613.26 1463.64 2615.62 1475.22 2615.62 1487.91C2615.62 1510.56 2608.4 1528.73 2593.97 1542.42C2579.78 1556.11 2559.74 1562.95 2533.86 1562.95H2317.68ZM2653.11 1562.95V1296H2697.16L2816.64 1295.63C2864.93 1295.63 2902.39 1306.96 2929.02 1329.61C2955.65 1352.26 2968.97 1385.49 2968.97 1429.29C2968.97 1473.1 2955.65 1506.33 2929.02 1528.98C2902.39 1551.63 2864.93 1562.95 2816.64 1562.95H2653.11ZM2812.53 1344.17H2712.84V1514.42H2812.53C2843.89 1514.42 2867.66 1507.57 2883.84 1493.88C2900.02 1480.19 2908.11 1458.66 2908.11 1429.29C2908.11 1399.67 2900.02 1378.14 2883.84 1364.7C2867.66 1351.01 2843.89 1344.17 2812.53 1344.17Z" fill="white"/>
<defs>
<clipPath id="clip0_118_64">
<rect width="1080" height="1137.45" fill="white" transform="translate(950.241)"/>
</clipPath>
</defs>
</svg>
